<?xml version="1.0" encoding="UTF-8" standalone="no"?>
<!DOCTYPE svg PUBLIC "-//W3C//DTD SVG 1.1//EN"
 "http://www.w3.org/Graphics/SVG/1.1/DTD/svg11.dtd">
<!-- Generated by graphviz version 2.40.1 (20161225.0304)
 -->
<!-- Title: dependencies Pages: 1 -->
<svg width="792pt" height="284pt"
 viewBox="0.00 0.00 792.00 284.00" xmlns="http://www.w3.org/2000/svg" xmlns:xlink="http://www.w3.org/1999/xlink">
<g id="graph0" class="graph" transform="scale(1 1) rotate(0) translate(4 280)">
<title>dependencies</title>
<polygon fill="#ffffff" stroke="transparent" points="-4,4 -4,-280 788,-280 788,4 -4,4"/>
<text text-anchor="start" x="371.0091" y="-42.4" font-family="sans-serif" font-weight="bold" font-size="14.00" fill="#000000">Legend</text>
<polygon fill="#ffffb3" stroke="transparent" points="158,-10 158,-30 178,-30 178,-10 158,-10"/>
<text text-anchor="start" x="181.629" y="-15.4" font-family="sans-serif" font-size="14.00" fill="#000000"> &#160;Declarations</text>
<polygon fill="#8dd3c7" stroke="transparent" points="271,-10 271,-30 291,-30 291,-10 271,-10"/>
<text text-anchor="start" x="294.7251" y="-15.4" font-family="sans-serif" font-size="14.00" fill="#000000"> &#160;Module</text>
<polygon fill="#80b1d3" stroke="transparent" points="357,-10 357,-30 377,-30 377,-10 357,-10"/>
<text text-anchor="start" x="380.7812" y="-15.4" font-family="sans-serif" font-size="14.00" fill="#000000"> &#160;Bootstrap</text>
<polygon fill="#fdb462" stroke="transparent" points="454,-10 454,-30 474,-30 474,-10 454,-10"/>
<text text-anchor="start" x="477.6732" y="-15.4" font-family="sans-serif" font-size="14.00" fill="#000000"> &#160;Providers</text>
<polygon fill="#fb8072" stroke="transparent" points="550,-10 550,-30 570,-30 570,-10 550,-10"/>
<text text-anchor="start" x="573.7258" y="-15.4" font-family="sans-serif" font-size="14.00" fill="#000000"> &#160;Exports</text>
<g id="clust1" class="cluster">
<title>cluster_SharedModule</title>
<polygon fill="none" stroke="#000000" stroke-dasharray="1,5" points="8,-70 8,-268 776,-268 776,-70 8,-70"/>
</g>
<g id="clust2" class="cluster">
<title>cluster_SharedModule_declarations</title>
<polygon fill="none" stroke="#000000" points="16,-78 16,-130 768,-130 768,-78 16,-78"/>
</g>
<g id="clust9" class="cluster">
<title>cluster_SharedModule_exports</title>
<polygon fill="none" stroke="#000000" points="103,-208 103,-260 696,-260 696,-208 103,-208"/>
</g>
<!-- HeaderComponent -->
<g id="node1" class="node">
<title>HeaderComponent</title>
<polygon fill="#ffffb3" stroke="#000000" points="759.7437,-122 638.2563,-122 638.2563,-86 759.7437,-86 759.7437,-122"/>
<text text-anchor="middle" x="699" y="-99.8" font-family="Times,serif" font-size="14.00" fill="#000000">HeaderComponent</text>
</g>
<!-- SharedModule -->
<g id="node6" class="node">
<title>SharedModule</title>
<polygon fill="#8dd3c7" stroke="#000000" points="455.4231,-187 452.4231,-191 431.4231,-191 428.4231,-187 356.5769,-187 356.5769,-151 455.4231,-151 455.4231,-187"/>
<text text-anchor="middle" x="406" y="-164.8" font-family="Times,serif" font-size="14.00" fill="#000000">SharedModule</text>
</g>
<!-- HeaderComponent&#45;&gt;SharedModule -->
<g id="edge1" class="edge">
<title>HeaderComponent&#45;&gt;SharedModule</title>
<path fill="none" stroke="#000000" d="M662.875,-122.1061C662.875,-141.3391 662.875,-169 662.875,-169 662.875,-169 465.2241,-169 465.2241,-169"/>
<polygon fill="#000000" stroke="#000000" points="465.2242,-165.5001 455.2241,-169 465.2241,-172.5001 465.2242,-165.5001"/>
</g>
<!-- LoadingComponent -->
<g id="node2" class="node">
<title>LoadingComponent</title>
<polygon fill="#ffffb3" stroke="#000000" points="619.9902,-122 492.0098,-122 492.0098,-86 619.9902,-86 619.9902,-122"/>
<text text-anchor="middle" x="556" y="-99.8" font-family="Times,serif" font-size="14.00" fill="#000000">LoadingComponent</text>
</g>
<!-- LoadingComponent&#45;&gt;SharedModule -->
<g id="edge2" class="edge">
<title>LoadingComponent&#45;&gt;SharedModule</title>
<path fill="none" stroke="#000000" d="M518.375,-122.027C518.375,-138.3976 518.375,-160 518.375,-160 518.375,-160 465.2893,-160 465.2893,-160"/>
<polygon fill="#000000" stroke="#000000" points="465.2893,-156.5001 455.2893,-160 465.2893,-163.5001 465.2893,-156.5001"/>
</g>
<!-- MessagesComponent -->
<g id="node3" class="node">
<title>MessagesComponent</title>
<polygon fill="#ffffb3" stroke="#000000" points="473.7548,-122 338.2452,-122 338.2452,-86 473.7548,-86 473.7548,-122"/>
<text text-anchor="middle" x="406" y="-99.8" font-family="Times,serif" font-size="14.00" fill="#000000">MessagesComponent</text>
</g>
<!-- MessagesComponent&#45;&gt;SharedModule -->
<g id="edge3" class="edge">
<title>MessagesComponent&#45;&gt;SharedModule</title>
<path fill="none" stroke="#000000" d="M406,-122.1061C406,-122.1061 406,-140.991 406,-140.991"/>
<polygon fill="#000000" stroke="#000000" points="402.5001,-140.9909 406,-150.991 409.5001,-140.991 402.5001,-140.9909"/>
</g>
<!-- NotificationsComponent -->
<g id="node4" class="node">
<title>NotificationsComponent</title>
<polygon fill="#ffffb3" stroke="#000000" points="320.427,-122 165.573,-122 165.573,-86 320.427,-86 320.427,-122"/>
<text text-anchor="middle" x="243" y="-99.8" font-family="Times,serif" font-size="14.00" fill="#000000">NotificationsComponent</text>
</g>
<!-- NotificationsComponent&#45;&gt;SharedModule -->
<g id="edge4" class="edge">
<title>NotificationsComponent&#45;&gt;SharedModule</title>
<path fill="none" stroke="#000000" d="M288.293,-122.027C288.293,-138.3976 288.293,-160 288.293,-160 288.293,-160 346.7636,-160 346.7636,-160"/>
<polygon fill="#000000" stroke="#000000" points="346.7637,-163.5001 356.7636,-160 346.7636,-156.5001 346.7637,-163.5001"/>
</g>
<!-- SidebarComponent -->
<g id="node5" class="node">
<title>SidebarComponent</title>
<polygon fill="#ffffb3" stroke="#000000" points="148.0954,-122 23.9046,-122 23.9046,-86 148.0954,-86 148.0954,-122"/>
<text text-anchor="middle" x="86" y="-99.8" font-family="Times,serif" font-size="14.00" fill="#000000">SidebarComponent</text>
</g>
<!-- SidebarComponent&#45;&gt;SharedModule -->
<g id="edge5" class="edge">
<title>SidebarComponent&#45;&gt;SharedModule</title>
<path fill="none" stroke="#000000" d="M129.625,-122.1061C129.625,-141.3391 129.625,-169 129.625,-169 129.625,-169 346.5897,-169 346.5897,-169"/>
<polygon fill="#000000" stroke="#000000" points="346.5897,-172.5001 356.5897,-169 346.5897,-165.5001 346.5897,-172.5001"/>
</g>
<!-- HeaderComponent  -->
<g id="node7" class="node">
<title>HeaderComponent </title>
<polygon fill="#fb8072" stroke="#000000" points="687.7436,-252 562.2564,-252 562.2564,-216 687.7436,-216 687.7436,-252"/>
<text text-anchor="middle" x="625" y="-229.8" font-family="Times,serif" font-size="14.00" fill="#000000">HeaderComponent </text>
</g>
<!-- SharedModule&#45;&gt;HeaderComponent  -->
<g id="edge6" class="edge">
<title>SharedModule&#45;&gt;HeaderComponent </title>
<path fill="none" stroke="#000000" stroke-dasharray="5,2" d="M455.6266,-178C510.4812,-178 591.1867,-178 591.1867,-178 591.1867,-178 591.1867,-205.973 591.1867,-205.973"/>
<polygon fill="#000000" stroke="#000000" points="587.6868,-205.973 591.1867,-215.973 594.6868,-205.973 587.6868,-205.973"/>
</g>
<!-- LoadingComponent  -->
<g id="node8" class="node">
<title>LoadingComponent </title>
<polygon fill="#fb8072" stroke="#000000" points="544.9911,-252 413.0089,-252 413.0089,-216 544.9911,-216 544.9911,-252"/>
<text text-anchor="middle" x="479" y="-229.8" font-family="Times,serif" font-size="14.00" fill="#000000">LoadingComponent </text>
</g>
<!-- SharedModule&#45;&gt;LoadingComponent  -->
<g id="edge7" class="edge">
<title>SharedModule&#45;&gt;LoadingComponent </title>
<path fill="none" stroke="#000000" stroke-dasharray="5,2" d="M434.233,-187.1061C434.233,-187.1061 434.233,-205.991 434.233,-205.991"/>
<polygon fill="#000000" stroke="#000000" points="430.7331,-205.9909 434.233,-215.991 437.7331,-205.991 430.7331,-205.9909"/>
</g>
<!-- MessagesComponent  -->
<g id="node9" class="node">
<title>MessagesComponent </title>
<polygon fill="#fb8072" stroke="#000000" points="395.7548,-252 256.2452,-252 256.2452,-216 395.7548,-216 395.7548,-252"/>
<text text-anchor="middle" x="326" y="-229.8" font-family="Times,serif" font-size="14.00" fill="#000000">MessagesComponent </text>
</g>
<!-- SharedModule&#45;&gt;MessagesComponent  -->
<g id="edge8" class="edge">
<title>SharedModule&#45;&gt;MessagesComponent </title>
<path fill="none" stroke="#000000" stroke-dasharray="5,2" d="M376.2081,-187.1061C376.2081,-187.1061 376.2081,-205.991 376.2081,-205.991"/>
<polygon fill="#000000" stroke="#000000" points="372.7082,-205.9909 376.2081,-215.991 379.7082,-205.991 372.7082,-205.9909"/>
</g>
<!-- SidebarComponent  -->
<g id="node10" class="node">
<title>SidebarComponent </title>
<polygon fill="#fb8072" stroke="#000000" points="238.596,-252 111.404,-252 111.404,-216 238.596,-216 238.596,-252"/>
<text text-anchor="middle" x="175" y="-229.8" font-family="Times,serif" font-size="14.00" fill="#000000">SidebarComponent </text>
</g>
<!-- SharedModule&#45;&gt;SidebarComponent  -->
<g id="edge9" class="edge">
<title>SharedModule&#45;&gt;SidebarComponent </title>
<path fill="none" stroke="#000000" stroke-dasharray="5,2" d="M356.688,-178C296.4002,-178 202.2922,-178 202.2923,-178 202.2923,-178 202.2923,-205.973 202.2923,-205.973"/>
<polygon fill="#000000" stroke="#000000" points="198.7923,-205.973 202.2923,-215.973 205.7923,-205.973 198.7923,-205.973"/>
</g>
</g>
</svg>
