<?xml version="1.0" encoding="UTF-8" standalone="no"?>
<!DOCTYPE svg PUBLIC "-//W3C//DTD SVG 1.1//EN"
 "http://www.w3.org/Graphics/SVG/1.1/DTD/svg11.dtd">
<!-- Generated by graphviz version 2.40.1 (20161225.0304)
 -->
<!-- Title: dependencies Pages: 1 -->
<svg width="776pt" height="211pt"
 viewBox="0.00 0.00 776.00 211.00" xmlns="http://www.w3.org/2000/svg" xmlns:xlink="http://www.w3.org/1999/xlink">
<g id="graph0" class="graph" transform="scale(1 1) rotate(0) translate(4 207)">
<title>dependencies</title>
<polygon fill="#ffffff" stroke="transparent" points="-4,4 -4,-207 772,-207 772,4 -4,4"/>
<text text-anchor="start" x="363.0091" y="-42.4" font-family="sans-serif" font-weight="bold" font-size="14.00" fill="#000000">Legend</text>
<polygon fill="#ffffb3" stroke="transparent" points="150,-10 150,-30 170,-30 170,-10 150,-10"/>
<text text-anchor="start" x="173.629" y="-15.4" font-family="sans-serif" font-size="14.00" fill="#000000"> &#160;Declarations</text>
<polygon fill="#8dd3c7" stroke="transparent" points="263,-10 263,-30 283,-30 283,-10 263,-10"/>
<text text-anchor="start" x="286.7251" y="-15.4" font-family="sans-serif" font-size="14.00" fill="#000000"> &#160;Module</text>
<polygon fill="#80b1d3" stroke="transparent" points="349,-10 349,-30 369,-30 369,-10 349,-10"/>
<text text-anchor="start" x="372.7812" y="-15.4" font-family="sans-serif" font-size="14.00" fill="#000000"> &#160;Bootstrap</text>
<polygon fill="#fdb462" stroke="transparent" points="446,-10 446,-30 466,-30 466,-10 446,-10"/>
<text text-anchor="start" x="469.6732" y="-15.4" font-family="sans-serif" font-size="14.00" fill="#000000"> &#160;Providers</text>
<polygon fill="#fb8072" stroke="transparent" points="542,-10 542,-30 562,-30 562,-10 542,-10"/>
<text text-anchor="start" x="565.7258" y="-15.4" font-family="sans-serif" font-size="14.00" fill="#000000"> &#160;Exports</text>
<g id="clust1" class="cluster">
<title>cluster_AdminModule</title>
<polygon fill="none" stroke="#000000" stroke-dasharray="1,5" points="8,-70 8,-195 760,-195 760,-70 8,-70"/>
</g>
<g id="clust2" class="cluster">
<title>cluster_AdminModule_declarations</title>
<polygon fill="none" stroke="#000000" points="138,-78 138,-130 752,-130 752,-78 138,-78"/>
</g>
<g id="clust7" class="cluster">
<title>cluster_AdminModule_imports</title>
<polygon fill="none" stroke="#000000" points="16,-78 16,-130 130,-130 130,-78 16,-78"/>
</g>
<!-- AdminComponent -->
<g id="node1" class="node">
<title>AdminComponent</title>
<polygon fill="#ffffb3" stroke="#000000" points="744.2204,-122 623.7796,-122 623.7796,-86 744.2204,-86 744.2204,-122"/>
<text text-anchor="middle" x="684" y="-99.8" font-family="Times,serif" font-size="14.00" fill="#000000">AdminComponent</text>
</g>
<!-- AdminModule -->
<g id="node5" class="node">
<title>AdminModule</title>
<polygon fill="#8dd3c7" stroke="#000000" points="411.4386,-187 408.4386,-191 387.4386,-191 384.4386,-187 312.5614,-187 312.5614,-151 411.4386,-151 411.4386,-187"/>
<text text-anchor="middle" x="362" y="-164.8" font-family="Times,serif" font-size="14.00" fill="#000000">AdminModule</text>
</g>
<!-- AdminComponent&#45;&gt;AdminModule -->
<g id="edge1" class="edge">
<title>AdminComponent&#45;&gt;AdminModule</title>
<path fill="none" stroke="#000000" d="M684,-122.2843C684,-143.3211 684,-175 684,-175 684,-175 421.2554,-175 421.2554,-175"/>
<polygon fill="#000000" stroke="#000000" points="421.2554,-171.5001 411.2554,-175 421.2553,-178.5001 421.2554,-171.5001"/>
</g>
<!-- DashboardComponent -->
<g id="node2" class="node">
<title>DashboardComponent</title>
<polygon fill="#ffffb3" stroke="#000000" points="605.9734,-122 464.0266,-122 464.0266,-86 605.9734,-86 605.9734,-122"/>
<text text-anchor="middle" x="535" y="-99.8" font-family="Times,serif" font-size="14.00" fill="#000000">DashboardComponent</text>
</g>
<!-- DashboardComponent&#45;&gt;AdminModule -->
<g id="edge2" class="edge">
<title>DashboardComponent&#45;&gt;AdminModule</title>
<path fill="none" stroke="#000000" d="M535,-122.0225C535,-139.3734 535,-163 535,-163 535,-163 421.5749,-163 421.5749,-163"/>
<polygon fill="#000000" stroke="#000000" points="421.5749,-159.5001 411.5749,-163 421.5748,-166.5001 421.5749,-159.5001"/>
</g>
<!-- GlobalMessageComponent -->
<g id="node3" class="node">
<title>GlobalMessageComponent</title>
<polygon fill="#ffffb3" stroke="#000000" points="446.4129,-122 277.5871,-122 277.5871,-86 446.4129,-86 446.4129,-122"/>
<text text-anchor="middle" x="362" y="-99.8" font-family="Times,serif" font-size="14.00" fill="#000000">GlobalMessageComponent</text>
</g>
<!-- GlobalMessageComponent&#45;&gt;AdminModule -->
<g id="edge3" class="edge">
<title>GlobalMessageComponent&#45;&gt;AdminModule</title>
<path fill="none" stroke="#000000" d="M362,-122.1061C362,-122.1061 362,-140.991 362,-140.991"/>
<polygon fill="#000000" stroke="#000000" points="358.5001,-140.9909 362,-150.991 365.5001,-140.991 358.5001,-140.9909"/>
</g>
<!-- UsersComponent -->
<g id="node4" class="node">
<title>UsersComponent</title>
<polygon fill="#ffffb3" stroke="#000000" points="259.7036,-122 146.2964,-122 146.2964,-86 259.7036,-86 259.7036,-122"/>
<text text-anchor="middle" x="203" y="-99.8" font-family="Times,serif" font-size="14.00" fill="#000000">UsersComponent</text>
</g>
<!-- UsersComponent&#45;&gt;AdminModule -->
<g id="edge4" class="edge">
<title>UsersComponent&#45;&gt;AdminModule</title>
<path fill="none" stroke="#000000" d="M203,-122.0225C203,-139.3734 203,-163 203,-163 203,-163 302.563,-163 302.563,-163"/>
<polygon fill="#000000" stroke="#000000" points="302.563,-166.5001 312.563,-163 302.5629,-159.5001 302.563,-166.5001"/>
</g>
<!-- SharedModule -->
<g id="node6" class="node">
<title>SharedModule</title>
<polygon fill="#8dd3c7" stroke="#000000" points="122.4231,-122 119.4231,-126 98.4231,-126 95.4231,-122 23.5769,-122 23.5769,-86 122.4231,-86 122.4231,-122"/>
<text text-anchor="middle" x="73" y="-99.8" font-family="Times,serif" font-size="14.00" fill="#000000">SharedModule</text>
</g>
<!-- SharedModule&#45;&gt;AdminModule -->
<g id="edge5" class="edge">
<title>SharedModule&#45;&gt;AdminModule</title>
<path fill="none" stroke="#000000" d="M73,-122.2843C73,-143.3211 73,-175 73,-175 73,-175 302.6475,-175 302.6475,-175"/>
<polygon fill="#000000" stroke="#000000" points="302.6475,-178.5001 312.6475,-175 302.6475,-171.5001 302.6475,-178.5001"/>
</g>
</g>
</svg>
