<?xml version="1.0" encoding="UTF-8" standalone="no"?>
<!DOCTYPE svg PUBLIC "-//W3C//DTD SVG 1.1//EN"
 "http://www.w3.org/Graphics/SVG/1.1/DTD/svg11.dtd">
<!-- Generated by graphviz version 2.40.1 (20161225.0304)
 -->
<!-- Title: dependencies Pages: 1 -->
<svg width="1031pt" height="284pt"
 viewBox="0.00 0.00 1031.00 284.00" xmlns="http://www.w3.org/2000/svg" xmlns:xlink="http://www.w3.org/1999/xlink">
<g id="graph0" class="graph" transform="scale(1 1) rotate(0) translate(4 280)">
<title>dependencies</title>
<polygon fill="#ffffff" stroke="transparent" points="-4,4 -4,-280 1027,-280 1027,4 -4,4"/>
<text text-anchor="start" x="490.5091" y="-42.4" font-family="sans-serif" font-weight="bold" font-size="14.00" fill="#000000">Legend</text>
<polygon fill="#ffffb3" stroke="transparent" points="277.5,-10 277.5,-30 297.5,-30 297.5,-10 277.5,-10"/>
<text text-anchor="start" x="301.129" y="-15.4" font-family="sans-serif" font-size="14.00" fill="#000000"> &#160;Declarations</text>
<polygon fill="#8dd3c7" stroke="transparent" points="390.5,-10 390.5,-30 410.5,-30 410.5,-10 390.5,-10"/>
<text text-anchor="start" x="414.2251" y="-15.4" font-family="sans-serif" font-size="14.00" fill="#000000"> &#160;Module</text>
<polygon fill="#80b1d3" stroke="transparent" points="476.5,-10 476.5,-30 496.5,-30 496.5,-10 476.5,-10"/>
<text text-anchor="start" x="500.2812" y="-15.4" font-family="sans-serif" font-size="14.00" fill="#000000"> &#160;Bootstrap</text>
<polygon fill="#fdb462" stroke="transparent" points="573.5,-10 573.5,-30 593.5,-30 593.5,-10 573.5,-10"/>
<text text-anchor="start" x="597.1732" y="-15.4" font-family="sans-serif" font-size="14.00" fill="#000000"> &#160;Providers</text>
<polygon fill="#fb8072" stroke="transparent" points="669.5,-10 669.5,-30 689.5,-30 689.5,-10 669.5,-10"/>
<text text-anchor="start" x="693.2258" y="-15.4" font-family="sans-serif" font-size="14.00" fill="#000000"> &#160;Exports</text>
<g id="clust1" class="cluster">
<title>cluster_AppModule</title>
<polygon fill="none" stroke="#000000" stroke-dasharray="1,5" points="8,-70 8,-268 1015,-268 1015,-70 8,-70"/>
</g>
<g id="clust2" class="cluster">
<title>cluster_AppModule_declarations</title>
<polygon fill="none" stroke="#000000" points="248,-78 248,-130 1007,-130 1007,-78 248,-78"/>
</g>
<g id="clust8" class="cluster">
<title>cluster_AppModule_imports</title>
<polygon fill="none" stroke="#000000" points="16,-78 16,-130 240,-130 240,-78 16,-78"/>
</g>
<g id="clust10" class="cluster">
<title>cluster_AppModule_bootstrap</title>
<polygon fill="none" stroke="#000000" points="420,-208 420,-260 544,-260 544,-208 420,-208"/>
</g>
<!-- AppComponent -->
<g id="node1" class="node">
<title>AppComponent</title>
<polygon fill="#ffffb3" stroke="#000000" points="998.9399,-122 893.0601,-122 893.0601,-86 998.9399,-86 998.9399,-122"/>
<text text-anchor="middle" x="946" y="-99.8" font-family="Times,serif" font-size="14.00" fill="#000000">AppComponent</text>
</g>
<!-- AppModule -->
<g id="node6" class="node">
<title>AppModule</title>
<polygon fill="#8dd3c7" stroke="#000000" points="523.6571,-187 520.6571,-191 499.6571,-191 496.6571,-187 440.3429,-187 440.3429,-151 523.6571,-151 523.6571,-187"/>
<text text-anchor="middle" x="482" y="-164.8" font-family="Times,serif" font-size="14.00" fill="#000000">AppModule</text>
</g>
<!-- AppComponent&#45;&gt;AppModule -->
<g id="edge1" class="edge">
<title>AppComponent&#45;&gt;AppModule</title>
<path fill="none" stroke="#000000" d="M946,-122.2921C946,-144.2057 946,-178 946,-178 946,-178 533.9953,-178 533.9953,-178"/>
<polygon fill="#000000" stroke="#000000" points="533.9953,-174.5001 523.9953,-178 533.9952,-181.5001 533.9953,-174.5001"/>
</g>
<!-- LoginComponent -->
<g id="node2" class="node">
<title>LoginComponent</title>
<polygon fill="#ffffb3" stroke="#000000" points="875.2758,-122 760.7242,-122 760.7242,-86 875.2758,-86 875.2758,-122"/>
<text text-anchor="middle" x="818" y="-99.8" font-family="Times,serif" font-size="14.00" fill="#000000">LoginComponent</text>
</g>
<!-- LoginComponent&#45;&gt;AppModule -->
<g id="edge2" class="edge">
<title>LoginComponent&#45;&gt;AppModule</title>
<path fill="none" stroke="#000000" d="M818,-122.1061C818,-141.3391 818,-169 818,-169 818,-169 533.8753,-169 533.8753,-169"/>
<polygon fill="#000000" stroke="#000000" points="533.8753,-165.5001 523.8753,-169 533.8752,-172.5001 533.8753,-165.5001"/>
</g>
<!-- PageforbiddenComponent -->
<g id="node3" class="node">
<title>PageforbiddenComponent</title>
<polygon fill="#ffffb3" stroke="#000000" points="742.4706,-122 579.5294,-122 579.5294,-86 742.4706,-86 742.4706,-122"/>
<text text-anchor="middle" x="661" y="-99.8" font-family="Times,serif" font-size="14.00" fill="#000000">PageforbiddenComponent</text>
</g>
<!-- PageforbiddenComponent&#45;&gt;AppModule -->
<g id="edge3" class="edge">
<title>PageforbiddenComponent&#45;&gt;AppModule</title>
<path fill="none" stroke="#000000" d="M661,-122.027C661,-138.3976 661,-160 661,-160 661,-160 533.9675,-160 533.9675,-160"/>
<polygon fill="#000000" stroke="#000000" points="533.9676,-156.5001 523.9675,-160 533.9675,-163.5001 533.9676,-156.5001"/>
</g>
<!-- PagenotfoundComponent -->
<g id="node4" class="node">
<title>PagenotfoundComponent</title>
<polygon fill="#ffffb3" stroke="#000000" points="561.5954,-122 402.4046,-122 402.4046,-86 561.5954,-86 561.5954,-122"/>
<text text-anchor="middle" x="482" y="-99.8" font-family="Times,serif" font-size="14.00" fill="#000000">PagenotfoundComponent</text>
</g>
<!-- PagenotfoundComponent&#45;&gt;AppModule -->
<g id="edge4" class="edge">
<title>PagenotfoundComponent&#45;&gt;AppModule</title>
<path fill="none" stroke="#000000" d="M482,-122.1061C482,-122.1061 482,-140.991 482,-140.991"/>
<polygon fill="#000000" stroke="#000000" points="478.5001,-140.9909 482,-150.991 485.5001,-140.991 478.5001,-140.9909"/>
</g>
<!-- RegisterComponent -->
<g id="node5" class="node">
<title>RegisterComponent</title>
<polygon fill="#ffffb3" stroke="#000000" points="383.9846,-122 256.0154,-122 256.0154,-86 383.9846,-86 383.9846,-122"/>
<text text-anchor="middle" x="320" y="-99.8" font-family="Times,serif" font-size="14.00" fill="#000000">RegisterComponent</text>
</g>
<!-- RegisterComponent&#45;&gt;AppModule -->
<g id="edge5" class="edge">
<title>RegisterComponent&#45;&gt;AppModule</title>
<path fill="none" stroke="#000000" d="M320,-122.027C320,-138.3976 320,-160 320,-160 320,-160 430.281,-160 430.281,-160"/>
<polygon fill="#000000" stroke="#000000" points="430.281,-163.5001 440.281,-160 430.2809,-156.5001 430.281,-163.5001"/>
</g>
<!-- AppComponent  -->
<g id="node9" class="node">
<title>AppComponent </title>
<polygon fill="#80b1d3" stroke="#000000" points="536.439,-252 427.561,-252 427.561,-216 536.439,-216 536.439,-252"/>
<text text-anchor="middle" x="482" y="-229.8" font-family="Times,serif" font-size="14.00" fill="#000000">AppComponent </text>
</g>
<!-- AppModule&#45;&gt;AppComponent  -->
<g id="edge8" class="edge">
<title>AppModule&#45;&gt;AppComponent </title>
<path fill="none" stroke="#000000" stroke-dasharray="1,5" d="M482,-187.1061C482,-187.1061 482,-205.991 482,-205.991"/>
<polygon fill="#000000" stroke="#000000" points="478.5001,-205.9909 482,-215.991 485.5001,-205.991 478.5001,-205.9909"/>
</g>
<!-- AdminModule -->
<g id="node7" class="node">
<title>AdminModule</title>
<polygon fill="#8dd3c7" stroke="#000000" points="232.4386,-122 229.4386,-126 208.4386,-126 205.4386,-122 133.5614,-122 133.5614,-86 232.4386,-86 232.4386,-122"/>
<text text-anchor="middle" x="183" y="-99.8" font-family="Times,serif" font-size="14.00" fill="#000000">AdminModule</text>
</g>
<!-- AdminModule&#45;&gt;AppModule -->
<g id="edge6" class="edge">
<title>AdminModule&#45;&gt;AppModule</title>
<path fill="none" stroke="#000000" d="M183,-122.1061C183,-141.3391 183,-169 183,-169 183,-169 430.1105,-169 430.1105,-169"/>
<polygon fill="#000000" stroke="#000000" points="430.1105,-172.5001 440.1105,-169 430.1105,-165.5001 430.1105,-172.5001"/>
</g>
<!-- PagesModule -->
<g id="node8" class="node">
<title>PagesModule</title>
<polygon fill="#8dd3c7" stroke="#000000" points="116.2064,-122 113.2064,-126 92.2064,-126 89.2064,-122 23.7936,-122 23.7936,-86 116.2064,-86 116.2064,-122"/>
<text text-anchor="middle" x="70" y="-99.8" font-family="Times,serif" font-size="14.00" fill="#000000">PagesModule</text>
</g>
<!-- PagesModule&#45;&gt;AppModule -->
<g id="edge7" class="edge">
<title>PagesModule&#45;&gt;AppModule</title>
<path fill="none" stroke="#000000" d="M70,-122.2921C70,-144.2057 70,-178 70,-178 70,-178 430.2279,-178 430.2279,-178"/>
<polygon fill="#000000" stroke="#000000" points="430.228,-181.5001 440.2279,-178 430.2279,-174.5001 430.228,-181.5001"/>
</g>
</g>
</svg>
