<?xml version="1.0" encoding="UTF-8" standalone="no"?>
<!DOCTYPE svg PUBLIC "-//W3C//DTD SVG 1.1//EN"
 "http://www.w3.org/Graphics/SVG/1.1/DTD/svg11.dtd">
<!-- Generated by graphviz version 2.40.1 (20161225.0304)
 -->
<!-- Title: dependencies Pages: 1 -->
<svg width="1931pt" height="284pt"
 viewBox="0.00 0.00 1931.00 284.00" xmlns="http://www.w3.org/2000/svg" xmlns:xlink="http://www.w3.org/1999/xlink">
<g id="graph0" class="graph" transform="scale(1 1) rotate(0) translate(4 280)">
<title>dependencies</title>
<polygon fill="#ffffff" stroke="transparent" points="-4,4 -4,-280 1927,-280 1927,4 -4,4"/>
<text text-anchor="start" x="940.5091" y="-42.4" font-family="sans-serif" font-weight="bold" font-size="14.00" fill="#000000">Legend</text>
<polygon fill="#ffffb3" stroke="transparent" points="727.5,-10 727.5,-30 747.5,-30 747.5,-10 727.5,-10"/>
<text text-anchor="start" x="751.129" y="-15.4" font-family="sans-serif" font-size="14.00" fill="#000000"> &#160;Declarations</text>
<polygon fill="#8dd3c7" stroke="transparent" points="840.5,-10 840.5,-30 860.5,-30 860.5,-10 840.5,-10"/>
<text text-anchor="start" x="864.2251" y="-15.4" font-family="sans-serif" font-size="14.00" fill="#000000"> &#160;Module</text>
<polygon fill="#80b1d3" stroke="transparent" points="926.5,-10 926.5,-30 946.5,-30 946.5,-10 926.5,-10"/>
<text text-anchor="start" x="950.2812" y="-15.4" font-family="sans-serif" font-size="14.00" fill="#000000"> &#160;Bootstrap</text>
<polygon fill="#fdb462" stroke="transparent" points="1023.5,-10 1023.5,-30 1043.5,-30 1043.5,-10 1023.5,-10"/>
<text text-anchor="start" x="1047.1732" y="-15.4" font-family="sans-serif" font-size="14.00" fill="#000000"> &#160;Providers</text>
<polygon fill="#fb8072" stroke="transparent" points="1119.5,-10 1119.5,-30 1139.5,-30 1139.5,-10 1119.5,-10"/>
<text text-anchor="start" x="1143.2258" y="-15.4" font-family="sans-serif" font-size="14.00" fill="#000000"> &#160;Exports</text>
<g id="clust1" class="cluster">
<title>cluster_PagesModule</title>
<polygon fill="none" stroke="#000000" stroke-dasharray="1,5" points="8,-70 8,-268 1915,-268 1915,-70 8,-70"/>
</g>
<g id="clust2" class="cluster">
<title>cluster_PagesModule_declarations</title>
<polygon fill="none" stroke="#000000" points="447,-78 447,-130 1907,-130 1907,-78 447,-78"/>
</g>
<g id="clust13" class="cluster">
<title>cluster_PagesModule_imports</title>
<polygon fill="none" stroke="#000000" points="325,-78 325,-130 439,-130 439,-78 325,-78"/>
</g>
<g id="clust15" class="cluster">
<title>cluster_PagesModule_bootstrap</title>
<polygon fill="none" stroke="#000000" points="862,-208 862,-260 996,-260 996,-208 862,-208"/>
</g>
<g id="clust16" class="cluster">
<title>cluster_PagesModule_providers</title>
<polygon fill="none" stroke="#000000" points="16,-78 16,-130 317,-130 317,-78 16,-78"/>
</g>
<!-- AddBookComponent -->
<g id="node1" class="node">
<title>AddBookComponent</title>
<polygon fill="#ffffb3" stroke="#000000" points="1898.7758,-122 1763.2242,-122 1763.2242,-86 1898.7758,-86 1898.7758,-122"/>
<text text-anchor="middle" x="1831" y="-99.8" font-family="Times,serif" font-size="14.00" fill="#000000">AddBookComponent</text>
</g>
<!-- PagesModule -->
<g id="node11" class="node">
<title>PagesModule</title>
<polygon fill="#8dd3c7" stroke="#000000" points="975.2064,-187 972.2064,-191 951.2064,-191 948.2064,-187 882.7936,-187 882.7936,-151 975.2064,-151 975.2064,-187"/>
<text text-anchor="middle" x="929" y="-164.8" font-family="Times,serif" font-size="14.00" fill="#000000">PagesModule</text>
</g>
<!-- AddBookComponent&#45;&gt;PagesModule -->
<g id="edge1" class="edge">
<title>AddBookComponent&#45;&gt;PagesModule</title>
<path fill="none" stroke="#000000" d="M1831,-122.0908C1831,-145.1328 1831,-182 1831,-182 1831,-182 985.2827,-182 985.2827,-182"/>
<polygon fill="#000000" stroke="#000000" points="985.2828,-178.5001 975.2827,-182 985.2827,-185.5001 985.2828,-178.5001"/>
</g>
<!-- CardBookComponent -->
<g id="node2" class="node">
<title>CardBookComponent</title>
<polygon fill="#ffffb3" stroke="#000000" points="1745.3809,-122 1606.6191,-122 1606.6191,-86 1745.3809,-86 1745.3809,-122"/>
<text text-anchor="middle" x="1676" y="-99.8" font-family="Times,serif" font-size="14.00" fill="#000000">CardBookComponent</text>
</g>
<!-- CardBookComponent&#45;&gt;PagesModule -->
<g id="edge2" class="edge">
<title>CardBookComponent&#45;&gt;PagesModule</title>
<path fill="none" stroke="#000000" d="M1676,-122.0449C1676,-143.6623 1676,-177 1676,-177 1676,-177 985.1645,-177 985.1645,-177"/>
<polygon fill="#000000" stroke="#000000" points="985.1645,-173.5001 975.1645,-177 985.1644,-180.5001 985.1645,-173.5001"/>
</g>
<!-- ChatsComponent -->
<g id="node3" class="node">
<title>ChatsComponent</title>
<polygon fill="#ffffb3" stroke="#000000" points="1588.719,-122 1475.281,-122 1475.281,-86 1588.719,-86 1588.719,-122"/>
<text text-anchor="middle" x="1532" y="-99.8" font-family="Times,serif" font-size="14.00" fill="#000000">ChatsComponent</text>
</g>
<!-- ChatsComponent&#45;&gt;PagesModule -->
<g id="edge3" class="edge">
<title>ChatsComponent&#45;&gt;PagesModule</title>
<path fill="none" stroke="#000000" d="M1532,-122.2228C1532,-142.3652 1532,-172 1532,-172 1532,-172 985.3151,-172 985.3151,-172"/>
<polygon fill="#000000" stroke="#000000" points="985.3152,-168.5001 975.3151,-172 985.3151,-175.5001 985.3152,-168.5001"/>
</g>
<!-- HomeComponent -->
<g id="node4" class="node">
<title>HomeComponent</title>
<polygon fill="#ffffb3" stroke="#000000" points="1457.5451,-122 1342.4549,-122 1342.4549,-86 1457.5451,-86 1457.5451,-122"/>
<text text-anchor="middle" x="1400" y="-99.8" font-family="Times,serif" font-size="14.00" fill="#000000">HomeComponent</text>
</g>
<!-- HomeComponent&#45;&gt;PagesModule -->
<g id="edge4" class="edge">
<title>HomeComponent&#45;&gt;PagesModule</title>
<path fill="none" stroke="#000000" d="M1400,-122.2222C1400,-140.8285 1400,-167 1400,-167 1400,-167 985.4503,-167 985.4503,-167"/>
<polygon fill="#000000" stroke="#000000" points="985.4503,-163.5001 975.4503,-167 985.4503,-170.5001 985.4503,-163.5001"/>
</g>
<!-- LibraryComponent -->
<g id="node5" class="node">
<title>LibraryComponent</title>
<polygon fill="#ffffb3" stroke="#000000" points="1324.8118,-122 1201.1882,-122 1201.1882,-86 1324.8118,-86 1324.8118,-122"/>
<text text-anchor="middle" x="1263" y="-99.8" font-family="Times,serif" font-size="14.00" fill="#000000">LibraryComponent</text>
</g>
<!-- LibraryComponent&#45;&gt;PagesModule -->
<g id="edge5" class="edge">
<title>LibraryComponent&#45;&gt;PagesModule</title>
<path fill="none" stroke="#000000" d="M1263,-122.0336C1263,-139.0597 1263,-162 1263,-162 1263,-162 985.4413,-162 985.4413,-162"/>
<polygon fill="#000000" stroke="#000000" points="985.4413,-158.5001 975.4413,-162 985.4412,-165.5001 985.4413,-158.5001"/>
</g>
<!-- MessageAdminComponent -->
<g id="node6" class="node">
<title>MessageAdminComponent</title>
<polygon fill="#ffffb3" stroke="#000000" points="1183.6979,-122 1014.3021,-122 1014.3021,-86 1183.6979,-86 1183.6979,-122"/>
<text text-anchor="middle" x="1099" y="-99.8" font-family="Times,serif" font-size="14.00" fill="#000000">MessageAdminComponent</text>
</g>
<!-- MessageAdminComponent&#45;&gt;PagesModule -->
<g id="edge6" class="edge">
<title>MessageAdminComponent&#45;&gt;PagesModule</title>
<path fill="none" stroke="#000000" d="M1099,-122.2396C1099,-137.5706 1099,-157 1099,-157 1099,-157 985.4532,-157 985.4532,-157"/>
<polygon fill="#000000" stroke="#000000" points="985.4533,-153.5001 975.4532,-157 985.4532,-160.5001 985.4533,-153.5001"/>
</g>
<!-- OneBookComponent -->
<g id="node7" class="node">
<title>OneBookComponent</title>
<polygon fill="#ffffb3" stroke="#000000" points="996.4902,-122 861.5098,-122 861.5098,-86 996.4902,-86 996.4902,-122"/>
<text text-anchor="middle" x="929" y="-99.8" font-family="Times,serif" font-size="14.00" fill="#000000">OneBookComponent</text>
</g>
<!-- OneBookComponent&#45;&gt;PagesModule -->
<g id="edge7" class="edge">
<title>OneBookComponent&#45;&gt;PagesModule</title>
<path fill="none" stroke="#000000" d="M929,-122.1061C929,-122.1061 929,-140.991 929,-140.991"/>
<polygon fill="#000000" stroke="#000000" points="925.5001,-140.9909 929,-150.991 932.5001,-140.991 925.5001,-140.9909"/>
</g>
<!-- PagesComponent -->
<g id="node8" class="node">
<title>PagesComponent</title>
<polygon fill="#ffffb3" stroke="#000000" points="843.9888,-122 730.0112,-122 730.0112,-86 843.9888,-86 843.9888,-122"/>
<text text-anchor="middle" x="787" y="-99.8" font-family="Times,serif" font-size="14.00" fill="#000000">PagesComponent</text>
</g>
<!-- PagesComponent&#45;&gt;PagesModule -->
<g id="edge8" class="edge">
<title>PagesComponent&#45;&gt;PagesModule</title>
<path fill="none" stroke="#000000" d="M787,-122.2396C787,-137.5706 787,-157 787,-157 787,-157 872.8967,-157 872.8967,-157"/>
<polygon fill="#000000" stroke="#000000" points="872.8967,-160.5001 882.8967,-157 872.8966,-153.5001 872.8967,-160.5001"/>
</g>
<!-- ProfileComponent -->
<g id="node9" class="node">
<title>ProfileComponent</title>
<polygon fill="#ffffb3" stroke="#000000" points="711.9328,-122 592.0672,-122 592.0672,-86 711.9328,-86 711.9328,-122"/>
<text text-anchor="middle" x="652" y="-99.8" font-family="Times,serif" font-size="14.00" fill="#000000">ProfileComponent</text>
</g>
<!-- ProfileComponent&#45;&gt;PagesModule -->
<g id="edge9" class="edge">
<title>ProfileComponent&#45;&gt;PagesModule</title>
<path fill="none" stroke="#000000" d="M652,-122.0336C652,-139.0597 652,-162 652,-162 652,-162 872.6364,-162 872.6364,-162"/>
<polygon fill="#000000" stroke="#000000" points="872.6365,-165.5001 882.6364,-162 872.6364,-158.5001 872.6365,-165.5001"/>
</g>
<!-- SearchComponent -->
<g id="node10" class="node">
<title>SearchComponent</title>
<polygon fill="#ffffb3" stroke="#000000" points="574.9201,-122 455.0799,-122 455.0799,-86 574.9201,-86 574.9201,-122"/>
<text text-anchor="middle" x="515" y="-99.8" font-family="Times,serif" font-size="14.00" fill="#000000">SearchComponent</text>
</g>
<!-- SearchComponent&#45;&gt;PagesModule -->
<g id="edge10" class="edge">
<title>SearchComponent&#45;&gt;PagesModule</title>
<path fill="none" stroke="#000000" d="M515,-122.2222C515,-140.8285 515,-167 515,-167 515,-167 872.714,-167 872.714,-167"/>
<polygon fill="#000000" stroke="#000000" points="872.714,-170.5001 882.714,-167 872.714,-163.5001 872.714,-170.5001"/>
</g>
<!-- PagesComponent  -->
<g id="node13" class="node">
<title>PagesComponent </title>
<polygon fill="#80b1d3" stroke="#000000" points="987.9898,-252 870.0102,-252 870.0102,-216 987.9898,-216 987.9898,-252"/>
<text text-anchor="middle" x="929" y="-229.8" font-family="Times,serif" font-size="14.00" fill="#000000">PagesComponent </text>
</g>
<!-- PagesModule&#45;&gt;PagesComponent  -->
<g id="edge12" class="edge">
<title>PagesModule&#45;&gt;PagesComponent </title>
<path fill="none" stroke="#000000" stroke-dasharray="1,5" d="M929,-187.1061C929,-187.1061 929,-205.991 929,-205.991"/>
<polygon fill="#000000" stroke="#000000" points="925.5001,-205.9909 929,-215.991 932.5001,-205.991 925.5001,-205.9909"/>
</g>
<!-- SharedModule -->
<g id="node12" class="node">
<title>SharedModule</title>
<polygon fill="#8dd3c7" stroke="#000000" points="431.4231,-122 428.4231,-126 407.4231,-126 404.4231,-122 332.5769,-122 332.5769,-86 431.4231,-86 431.4231,-122"/>
<text text-anchor="middle" x="382" y="-99.8" font-family="Times,serif" font-size="14.00" fill="#000000">SharedModule</text>
</g>
<!-- SharedModule&#45;&gt;PagesModule -->
<g id="edge11" class="edge">
<title>SharedModule&#45;&gt;PagesModule</title>
<path fill="none" stroke="#000000" d="M382,-122.2228C382,-142.3652 382,-172 382,-172 382,-172 872.8345,-172 872.8345,-172"/>
<polygon fill="#000000" stroke="#000000" points="872.8345,-175.5001 882.8345,-172 872.8345,-168.5001 872.8345,-175.5001"/>
</g>
<!-- DatabaseService -->
<g id="node14" class="node">
<title>DatabaseService</title>
<ellipse fill="#fdb462" stroke="#000000" cx="234" cy="-104" rx="75.2559" ry="18"/>
<text text-anchor="middle" x="234" y="-99.8" font-family="Times,serif" font-size="14.00" fill="#000000">DatabaseService</text>
</g>
<!-- DatabaseService&#45;&gt;PagesModule -->
<g id="edge13" class="edge">
<title>DatabaseService&#45;&gt;PagesModule</title>
<path fill="none" stroke="#000000" d="M234,-122.0449C234,-143.6623 234,-177 234,-177 234,-177 872.8609,-177 872.8609,-177"/>
<polygon fill="#000000" stroke="#000000" points="872.8609,-180.5001 882.8609,-177 872.8608,-173.5001 872.8609,-180.5001"/>
</g>
<!-- DateService -->
<g id="node15" class="node">
<title>DateService</title>
<ellipse fill="#fdb462" stroke="#000000" cx="82" cy="-104" rx="58.4415" ry="18"/>
<text text-anchor="middle" x="82" y="-99.8" font-family="Times,serif" font-size="14.00" fill="#000000">DateService</text>
</g>
<!-- DateService&#45;&gt;PagesModule -->
<g id="edge14" class="edge">
<title>DateService&#45;&gt;PagesModule</title>
<path fill="none" stroke="#000000" d="M82,-122.0908C82,-145.1328 82,-182 82,-182 82,-182 872.8601,-182 872.8601,-182"/>
<polygon fill="#000000" stroke="#000000" points="872.8601,-185.5001 882.8601,-182 872.8601,-178.5001 872.8601,-185.5001"/>
</g>
</g>
</svg>
