<?xml version="1.0" encoding="UTF-8" standalone="no"?>
<!DOCTYPE svg PUBLIC "-//W3C//DTD SVG 1.1//EN"
 "http://www.w3.org/Graphics/SVG/1.1/DTD/svg11.dtd">
<!-- Generated by graphviz version 2.40.1 (20161225.0304)
 -->
<!-- Title: dependencies Pages: 1 -->
<svg width="2880pt" height="436pt"
 viewBox="0.00 0.00 2880.00 436.00" xmlns="http://www.w3.org/2000/svg" xmlns:xlink="http://www.w3.org/1999/xlink">
<g id="graph0" class="graph" transform="scale(1 1) rotate(0) translate(4 432)">
<title>dependencies</title>
<polygon fill="#ffffff" stroke="transparent" points="-4,4 -4,-432 2876,-432 2876,4 -4,4"/>
<text text-anchor="start" x="1415.0091" y="-42.4" font-family="sans-serif" font-weight="bold" font-size="14.00" fill="#000000">Legend</text>
<polygon fill="#ffffb3" stroke="transparent" points="1202,-10 1202,-30 1222,-30 1222,-10 1202,-10"/>
<text text-anchor="start" x="1225.629" y="-15.4" font-family="sans-serif" font-size="14.00" fill="#000000"> &#160;Declarations</text>
<polygon fill="#8dd3c7" stroke="transparent" points="1315,-10 1315,-30 1335,-30 1335,-10 1315,-10"/>
<text text-anchor="start" x="1338.7251" y="-15.4" font-family="sans-serif" font-size="14.00" fill="#000000"> &#160;Module</text>
<polygon fill="#80b1d3" stroke="transparent" points="1401,-10 1401,-30 1421,-30 1421,-10 1401,-10"/>
<text text-anchor="start" x="1424.7812" y="-15.4" font-family="sans-serif" font-size="14.00" fill="#000000"> &#160;Bootstrap</text>
<polygon fill="#fdb462" stroke="transparent" points="1498,-10 1498,-30 1518,-30 1518,-10 1498,-10"/>
<text text-anchor="start" x="1521.6732" y="-15.4" font-family="sans-serif" font-size="14.00" fill="#000000"> &#160;Providers</text>
<polygon fill="#fb8072" stroke="transparent" points="1594,-10 1594,-30 1614,-30 1614,-10 1594,-10"/>
<text text-anchor="start" x="1617.7258" y="-15.4" font-family="sans-serif" font-size="14.00" fill="#000000"> &#160;Exports</text>
<g id="clust1" class="cluster">
<title>cluster_AdminModule</title>
<polygon fill="none" stroke="#000000" stroke-dasharray="1,5" points="1943,-146 1943,-282 2695,-282 2695,-146 1943,-146"/>
</g>
<g id="clust2" class="cluster">
<title>cluster_AdminModule_declarations</title>
<polygon fill="none" stroke="#000000" points="2073,-154 2073,-206 2687,-206 2687,-154 2073,-154"/>
</g>
<g id="clust7" class="cluster">
<title>cluster_AdminModule_imports</title>
<polygon fill="none" stroke="#000000" points="1951,-154 1951,-206 2065,-206 2065,-154 1951,-154"/>
</g>
<g id="clust11" class="cluster">
<title>cluster_AppModule</title>
<polygon fill="none" stroke="#000000" stroke-dasharray="1,5" points="1044,-222 1044,-420 1935,-420 1935,-222 1044,-222"/>
</g>
<g id="clust12" class="cluster">
<title>cluster_AppModule_declarations</title>
<polygon fill="none" stroke="#000000" points="1168,-230 1168,-282 1927,-282 1927,-230 1168,-230"/>
</g>
<g id="clust18" class="cluster">
<title>cluster_AppModule_imports</title>
<polygon fill="none" stroke="#000000" points="1052,-230 1052,-282 1160,-282 1160,-230 1052,-230"/>
</g>
<g id="clust20" class="cluster">
<title>cluster_AppModule_bootstrap</title>
<polygon fill="none" stroke="#000000" points="1519,-360 1519,-412 1643,-412 1643,-360 1519,-360"/>
</g>
<g id="clust22" class="cluster">
<title>cluster_PagesModule</title>
<polygon fill="none" stroke="#000000" stroke-dasharray="1,5" points="8,-146 8,-214 1935,-214 1935,-146 8,-146"/>
</g>
<g id="clust23" class="cluster">
<title>cluster_PagesModule_declarations</title>
<polygon fill="none" stroke="#000000" points="467,-154 467,-206 1927,-206 1927,-154 467,-154"/>
</g>
<g id="clust36" class="cluster">
<title>cluster_PagesModule_bootstrap</title>
<polygon fill="none" stroke="#000000" points="325,-154 325,-206 459,-206 459,-154 325,-154"/>
</g>
<g id="clust37" class="cluster">
<title>cluster_PagesModule_providers</title>
<polygon fill="none" stroke="#000000" points="16,-154 16,-206 317,-206 317,-154 16,-154"/>
</g>
<g id="clust38" class="cluster">
<title>cluster_PipesCommonModule</title>
<polygon fill="none" stroke="#000000" stroke-dasharray="1,5" points="2706,-70 2706,-290 2864,-290 2864,-70 2706,-70"/>
</g>
<g id="clust39" class="cluster">
<title>cluster_PipesCommonModule_declarations</title>
<polygon fill="none" stroke="#000000" points="2726,-78 2726,-130 2844,-130 2844,-78 2726,-78"/>
</g>
<g id="clust42" class="cluster">
<title>cluster_PipesCommonModule_exports</title>
<polygon fill="none" stroke="#000000" points="2724,-230 2724,-282 2846,-282 2846,-230 2724,-230"/>
</g>
<g id="clust45" class="cluster">
<title>cluster_SharedModule</title>
<polygon fill="none" stroke="#000000" stroke-dasharray="1,5" points="1329,-70 1329,-138 2698,-138 2698,-70 1329,-70"/>
</g>
<g id="clust46" class="cluster">
<title>cluster_SharedModule_declarations</title>
<polygon fill="none" stroke="#000000" points="1938,-78 1938,-130 2690,-130 2690,-78 1938,-78"/>
</g>
<g id="clust53" class="cluster">
<title>cluster_SharedModule_exports</title>
<polygon fill="none" stroke="#000000" points="1337,-78 1337,-130 1930,-130 1930,-78 1337,-78"/>
</g>
<!-- AdminComponent -->
<g id="node1" class="node">
<title>AdminComponent</title>
<polygon fill="#ffffb3" stroke="#000000" points="2679.2204,-198 2558.7796,-198 2558.7796,-162 2679.2204,-162 2679.2204,-198"/>
<text text-anchor="middle" x="2619" y="-175.8" font-family="Times,serif" font-size="14.00" fill="#000000">AdminComponent</text>
</g>
<!-- AdminModule -->
<g id="node5" class="node">
<title>AdminModule</title>
<polygon fill="#8dd3c7" stroke="#000000" points="2266.4386,-274 2263.4386,-278 2242.4386,-278 2239.4386,-274 2167.5614,-274 2167.5614,-238 2266.4386,-238 2266.4386,-274"/>
<text text-anchor="middle" x="2217" y="-251.8" font-family="Times,serif" font-size="14.00" fill="#000000">AdminModule</text>
</g>
<!-- AdminComponent&#45;&gt;AdminModule -->
<g id="edge1" class="edge">
<title>AdminComponent&#45;&gt;AdminModule</title>
<path fill="none" stroke="#000000" d="M2619,-198.1985C2619,-222.3563 2619,-262 2619,-262 2619,-262 2276.2931,-262 2276.2931,-262"/>
<polygon fill="#000000" stroke="#000000" points="2276.2931,-258.5001 2266.2931,-262 2276.2931,-265.5001 2276.2931,-258.5001"/>
</g>
<!-- DashboardComponent -->
<g id="node2" class="node">
<title>DashboardComponent</title>
<polygon fill="#ffffb3" stroke="#000000" points="2540.9734,-198 2399.0266,-198 2399.0266,-162 2540.9734,-162 2540.9734,-198"/>
<text text-anchor="middle" x="2470" y="-175.8" font-family="Times,serif" font-size="14.00" fill="#000000">DashboardComponent</text>
</g>
<!-- DashboardComponent&#45;&gt;AdminModule -->
<g id="edge2" class="edge">
<title>DashboardComponent&#45;&gt;AdminModule</title>
<path fill="none" stroke="#000000" d="M2470,-198.0267C2470,-218.7672 2470,-250 2470,-250 2470,-250 2276.3815,-250 2276.3815,-250"/>
<polygon fill="#000000" stroke="#000000" points="2276.3816,-246.5001 2266.3815,-250 2276.3815,-253.5001 2276.3816,-246.5001"/>
</g>
<!-- GlobalMessageComponent -->
<g id="node3" class="node">
<title>GlobalMessageComponent</title>
<polygon fill="#ffffb3" stroke="#000000" points="2381.4129,-198 2212.5871,-198 2212.5871,-162 2381.4129,-162 2381.4129,-198"/>
<text text-anchor="middle" x="2297" y="-175.8" font-family="Times,serif" font-size="14.00" fill="#000000">GlobalMessageComponent</text>
</g>
<!-- GlobalMessageComponent&#45;&gt;AdminModule -->
<g id="edge3" class="edge">
<title>GlobalMessageComponent&#45;&gt;AdminModule</title>
<path fill="none" stroke="#000000" d="M2239.5063,-198.0109C2239.5063,-198.0109 2239.5063,-227.855 2239.5063,-227.855"/>
<polygon fill="#000000" stroke="#000000" points="2236.0064,-227.8549 2239.5063,-237.855 2243.0064,-227.855 2236.0064,-227.8549"/>
</g>
<!-- UsersComponent -->
<g id="node4" class="node">
<title>UsersComponent</title>
<polygon fill="#ffffb3" stroke="#000000" points="2194.7036,-198 2081.2964,-198 2081.2964,-162 2194.7036,-162 2194.7036,-198"/>
<text text-anchor="middle" x="2138" y="-175.8" font-family="Times,serif" font-size="14.00" fill="#000000">UsersComponent</text>
</g>
<!-- UsersComponent&#45;&gt;AdminModule -->
<g id="edge4" class="edge">
<title>UsersComponent&#45;&gt;AdminModule</title>
<path fill="none" stroke="#000000" d="M2181.1915,-198.0109C2181.1915,-198.0109 2181.1915,-227.855 2181.1915,-227.855"/>
<polygon fill="#000000" stroke="#000000" points="2177.6915,-227.8549 2181.1915,-237.855 2184.6915,-227.855 2177.6915,-227.8549"/>
</g>
<!-- AppModule -->
<g id="node12" class="node">
<title>AppModule</title>
<polygon fill="#8dd3c7" stroke="#000000" points="1622.6571,-339 1619.6571,-343 1598.6571,-343 1595.6571,-339 1539.3429,-339 1539.3429,-303 1622.6571,-303 1622.6571,-339"/>
<text text-anchor="middle" x="1581" y="-316.8" font-family="Times,serif" font-size="14.00" fill="#000000">AppModule</text>
</g>
<!-- AdminModule&#45;&gt;AppModule -->
<g id="edge11" class="edge">
<title>AdminModule&#45;&gt;AppModule</title>
<path fill="none" stroke="#000000" d="M2217,-274.2921C2217,-296.2057 2217,-330 2217,-330 2217,-330 1632.7297,-330 1632.7297,-330"/>
<polygon fill="#000000" stroke="#000000" points="1632.7298,-326.5001 1622.7297,-330 1632.7297,-333.5001 1632.7298,-326.5001"/>
</g>
<!-- SharedModule -->
<g id="node6" class="node">
<title>SharedModule</title>
<polygon fill="#8dd3c7" stroke="#000000" points="2057.4231,-198 2054.4231,-202 2033.4231,-202 2030.4231,-198 1958.5769,-198 1958.5769,-162 2057.4231,-162 2057.4231,-198"/>
<text text-anchor="middle" x="2008" y="-175.8" font-family="Times,serif" font-size="14.00" fill="#000000">SharedModule</text>
</g>
<!-- SharedModule&#45;&gt;AdminModule -->
<g id="edge5" class="edge">
<title>SharedModule&#45;&gt;AdminModule</title>
<path fill="none" stroke="#000000" d="M2024.4037,-198.0109C2024.4037,-220.4852 2024.4037,-256 2024.4037,-256 2024.4037,-256 2157.4017,-256 2157.4017,-256"/>
<polygon fill="#000000" stroke="#000000" points="2157.4017,-259.5001 2167.4017,-256 2157.4016,-252.5001 2157.4017,-259.5001"/>
</g>
<!-- PagesModule -->
<g id="node13" class="node">
<title>PagesModule</title>
<polygon fill="#8dd3c7" stroke="#000000" points="1152.2064,-274 1149.2064,-278 1128.2064,-278 1125.2064,-274 1059.7936,-274 1059.7936,-238 1152.2064,-238 1152.2064,-274"/>
<text text-anchor="middle" x="1106" y="-251.8" font-family="Times,serif" font-size="14.00" fill="#000000">PagesModule</text>
</g>
<!-- SharedModule&#45;&gt;PagesModule -->
<g id="edge24" class="edge">
<title>SharedModule&#45;&gt;PagesModule</title>
<path fill="none" stroke="#000000" d="M1991.5963,-198.2396C1991.5963,-213.5706 1991.5963,-233 1991.5963,-233 1991.5963,-233 1140.5773,-233 1140.5773,-233 1140.5773,-233 1140.5773,-233.4878 1140.5773,-233.4878"/>
<polygon fill="#000000" stroke="#000000" points="1137.0776,-227.8776 1140.5773,-237.8777 1144.0776,-227.8778 1137.0776,-227.8776"/>
</g>
<!-- HeaderComponent  -->
<g id="node36" class="node">
<title>HeaderComponent </title>
<polygon fill="#fb8072" stroke="#000000" points="1921.7436,-122 1796.2564,-122 1796.2564,-86 1921.7436,-86 1921.7436,-122"/>
<text text-anchor="middle" x="1859" y="-99.8" font-family="Times,serif" font-size="14.00" fill="#000000">HeaderComponent </text>
</g>
<!-- SharedModule&#45;&gt;HeaderComponent  -->
<g id="edge35" class="edge">
<title>SharedModule&#45;&gt;HeaderComponent </title>
<path fill="none" stroke="#000000" stroke-dasharray="5,2" d="M1958.4989,-180C1944.8857,-180 1933.787,-180 1933.787,-180 1933.787,-180 1933.787,-104 1933.787,-104 1933.787,-104 1931.7712,-104 1931.7712,-104"/>
<polygon fill="#000000" stroke="#000000" points="1931.7712,-100.5001 1921.7712,-104 1931.7711,-107.5001 1931.7712,-100.5001"/>
</g>
<!-- LoadingComponent  -->
<g id="node37" class="node">
<title>LoadingComponent </title>
<polygon fill="#fb8072" stroke="#000000" points="1778.9911,-122 1647.0089,-122 1647.0089,-86 1778.9911,-86 1778.9911,-122"/>
<text text-anchor="middle" x="1713" y="-99.8" font-family="Times,serif" font-size="14.00" fill="#000000">LoadingComponent </text>
</g>
<!-- SharedModule&#45;&gt;LoadingComponent  -->
<g id="edge36" class="edge">
<title>SharedModule&#45;&gt;LoadingComponent </title>
<path fill="none" stroke="#000000" stroke-dasharray="5,2" d="M1995.6972,-161.68C1995.6972,-153.2117 1995.6972,-145 1995.6972,-145 1995.6972,-145 1772.0928,-145 1772.0928,-145 1772.0928,-145 1772.0928,-132.1025 1772.0928,-132.1025"/>
<polygon fill="#000000" stroke="#000000" points="1775.5928,-132.1025 1772.0928,-122.1025 1768.5928,-132.1026 1775.5928,-132.1025"/>
</g>
<!-- MessagesComponent  -->
<g id="node38" class="node">
<title>MessagesComponent </title>
<polygon fill="#fb8072" stroke="#000000" points="1629.7548,-122 1490.2452,-122 1490.2452,-86 1629.7548,-86 1629.7548,-122"/>
<text text-anchor="middle" x="1560" y="-99.8" font-family="Times,serif" font-size="14.00" fill="#000000">MessagesComponent </text>
</g>
<!-- SharedModule&#45;&gt;MessagesComponent  -->
<g id="edge37" class="edge">
<title>SharedModule&#45;&gt;MessagesComponent </title>
<path fill="none" stroke="#000000" stroke-dasharray="5,2" d="M1983.3945,-161.7985C1983.3945,-155.972 1983.3945,-151 1983.3945,-151 1983.3945,-151 1617.5845,-151 1617.5845,-151 1617.5845,-151 1617.5845,-132.037 1617.5845,-132.037"/>
<polygon fill="#000000" stroke="#000000" points="1621.0846,-132.037 1617.5845,-122.037 1614.0846,-132.037 1621.0846,-132.037"/>
</g>
<!-- SidebarComponent  -->
<g id="node39" class="node">
<title>SidebarComponent </title>
<polygon fill="#fb8072" stroke="#000000" points="1472.596,-122 1345.404,-122 1345.404,-86 1472.596,-86 1472.596,-122"/>
<text text-anchor="middle" x="1409" y="-99.8" font-family="Times,serif" font-size="14.00" fill="#000000">SidebarComponent </text>
</g>
<!-- SharedModule&#45;&gt;SidebarComponent  -->
<g id="edge38" class="edge">
<title>SharedModule&#45;&gt;SidebarComponent </title>
<path fill="none" stroke="#000000" stroke-dasharray="5,2" d="M1971.0917,-161.8777C1971.0917,-159.0271 1971.0917,-157 1971.0917,-157 1971.0917,-157 1417.5128,-157 1417.5128,-157 1417.5128,-157 1417.5128,-132.2396 1417.5128,-132.2396"/>
<polygon fill="#000000" stroke="#000000" points="1421.0129,-132.2396 1417.5128,-122.2396 1414.0129,-132.2396 1421.0129,-132.2396"/>
</g>
<!-- AppComponent -->
<g id="node7" class="node">
<title>AppComponent</title>
<polygon fill="#ffffb3" stroke="#000000" points="1918.9399,-274 1813.0601,-274 1813.0601,-238 1918.9399,-238 1918.9399,-274"/>
<text text-anchor="middle" x="1866" y="-251.8" font-family="Times,serif" font-size="14.00" fill="#000000">AppComponent</text>
</g>
<!-- AppComponent&#45;&gt;AppModule -->
<g id="edge6" class="edge">
<title>AppComponent&#45;&gt;AppModule</title>
<path fill="none" stroke="#000000" d="M1866,-274.1061C1866,-293.3391 1866,-321 1866,-321 1866,-321 1632.7467,-321 1632.7467,-321"/>
<polygon fill="#000000" stroke="#000000" points="1632.7467,-317.5001 1622.7467,-321 1632.7466,-324.5001 1632.7467,-317.5001"/>
</g>
<!-- LoginComponent -->
<g id="node8" class="node">
<title>LoginComponent</title>
<polygon fill="#ffffb3" stroke="#000000" points="1795.2758,-274 1680.7242,-274 1680.7242,-238 1795.2758,-238 1795.2758,-274"/>
<text text-anchor="middle" x="1738" y="-251.8" font-family="Times,serif" font-size="14.00" fill="#000000">LoginComponent</text>
</g>
<!-- LoginComponent&#45;&gt;AppModule -->
<g id="edge7" class="edge">
<title>LoginComponent&#45;&gt;AppModule</title>
<path fill="none" stroke="#000000" d="M1738,-274.027C1738,-290.3976 1738,-312 1738,-312 1738,-312 1632.6609,-312 1632.6609,-312"/>
<polygon fill="#000000" stroke="#000000" points="1632.661,-308.5001 1622.6609,-312 1632.6609,-315.5001 1632.661,-308.5001"/>
</g>
<!-- PageforbiddenComponent -->
<g id="node9" class="node">
<title>PageforbiddenComponent</title>
<polygon fill="#ffffb3" stroke="#000000" points="1662.4706,-274 1499.5294,-274 1499.5294,-238 1662.4706,-238 1662.4706,-274"/>
<text text-anchor="middle" x="1581" y="-251.8" font-family="Times,serif" font-size="14.00" fill="#000000">PageforbiddenComponent</text>
</g>
<!-- PageforbiddenComponent&#45;&gt;AppModule -->
<g id="edge8" class="edge">
<title>PageforbiddenComponent&#45;&gt;AppModule</title>
<path fill="none" stroke="#000000" d="M1581,-274.1061C1581,-274.1061 1581,-292.991 1581,-292.991"/>
<polygon fill="#000000" stroke="#000000" points="1577.5001,-292.9909 1581,-302.991 1584.5001,-292.991 1577.5001,-292.9909"/>
</g>
<!-- PagenotfoundComponent -->
<g id="node10" class="node">
<title>PagenotfoundComponent</title>
<polygon fill="#ffffb3" stroke="#000000" points="1481.5954,-274 1322.4046,-274 1322.4046,-238 1481.5954,-238 1481.5954,-274"/>
<text text-anchor="middle" x="1402" y="-251.8" font-family="Times,serif" font-size="14.00" fill="#000000">PagenotfoundComponent</text>
</g>
<!-- PagenotfoundComponent&#45;&gt;AppModule -->
<g id="edge9" class="edge">
<title>PagenotfoundComponent&#45;&gt;AppModule</title>
<path fill="none" stroke="#000000" d="M1402,-274.027C1402,-290.3976 1402,-312 1402,-312 1402,-312 1529.0325,-312 1529.0325,-312"/>
<polygon fill="#000000" stroke="#000000" points="1529.0325,-315.5001 1539.0325,-312 1529.0324,-308.5001 1529.0325,-315.5001"/>
</g>
<!-- RegisterComponent -->
<g id="node11" class="node">
<title>RegisterComponent</title>
<polygon fill="#ffffb3" stroke="#000000" points="1303.9846,-274 1176.0154,-274 1176.0154,-238 1303.9846,-238 1303.9846,-274"/>
<text text-anchor="middle" x="1240" y="-251.8" font-family="Times,serif" font-size="14.00" fill="#000000">RegisterComponent</text>
</g>
<!-- RegisterComponent&#45;&gt;AppModule -->
<g id="edge10" class="edge">
<title>RegisterComponent&#45;&gt;AppModule</title>
<path fill="none" stroke="#000000" d="M1240,-274.1061C1240,-293.3391 1240,-321 1240,-321 1240,-321 1529.1867,-321 1529.1867,-321"/>
<polygon fill="#000000" stroke="#000000" points="1529.1867,-324.5001 1539.1867,-321 1529.1867,-317.5001 1529.1867,-324.5001"/>
</g>
<!-- AppComponent  -->
<g id="node14" class="node">
<title>AppComponent </title>
<polygon fill="#80b1d3" stroke="#000000" points="1635.439,-404 1526.561,-404 1526.561,-368 1635.439,-368 1635.439,-404"/>
<text text-anchor="middle" x="1581" y="-381.8" font-family="Times,serif" font-size="14.00" fill="#000000">AppComponent </text>
</g>
<!-- AppModule&#45;&gt;AppComponent  -->
<g id="edge13" class="edge">
<title>AppModule&#45;&gt;AppComponent </title>
<path fill="none" stroke="#000000" stroke-dasharray="1,5" d="M1581,-339.1061C1581,-339.1061 1581,-357.991 1581,-357.991"/>
<polygon fill="#000000" stroke="#000000" points="1577.5001,-357.9909 1581,-367.991 1584.5001,-357.991 1577.5001,-357.9909"/>
</g>
<!-- PagesModule&#45;&gt;AppModule -->
<g id="edge12" class="edge">
<title>PagesModule&#45;&gt;AppModule</title>
<path fill="none" stroke="#000000" d="M1106,-274.2921C1106,-296.2057 1106,-330 1106,-330 1106,-330 1529.2632,-330 1529.2632,-330"/>
<polygon fill="#000000" stroke="#000000" points="1529.2633,-333.5001 1539.2632,-330 1529.2632,-326.5001 1529.2633,-333.5001"/>
</g>
<!-- PagesComponent  -->
<g id="node25" class="node">
<title>PagesComponent </title>
<polygon fill="#80b1d3" stroke="#000000" points="450.9898,-198 333.0102,-198 333.0102,-162 450.9898,-162 450.9898,-198"/>
<text text-anchor="middle" x="392" y="-175.8" font-family="Times,serif" font-size="14.00" fill="#000000">PagesComponent </text>
</g>
<!-- PagesModule&#45;&gt;PagesComponent  -->
<g id="edge25" class="edge">
<title>PagesModule&#45;&gt;PagesComponent </title>
<path fill="none" stroke="#000000" stroke-dasharray="1,5" d="M1059.7026,-261C901.484,-261 392,-261 392,-261 392,-261 392,-208.3802 392,-208.3802"/>
<polygon fill="#000000" stroke="#000000" points="395.5001,-208.3801 392,-198.3802 388.5001,-208.3802 395.5001,-208.3801"/>
</g>
<!-- AddBookComponent -->
<g id="node15" class="node">
<title>AddBookComponent</title>
<polygon fill="#ffffb3" stroke="#000000" points="1918.7758,-198 1783.2242,-198 1783.2242,-162 1918.7758,-162 1918.7758,-198"/>
<text text-anchor="middle" x="1851" y="-175.8" font-family="Times,serif" font-size="14.00" fill="#000000">AddBookComponent</text>
</g>
<!-- AddBookComponent&#45;&gt;PagesModule -->
<g id="edge14" class="edge">
<title>AddBookComponent&#45;&gt;PagesModule</title>
<path fill="none" stroke="#000000" d="M1789.25,-198.037C1789.25,-211.2913 1789.25,-227 1789.25,-227 1789.25,-227 1129.0516,-227 1129.0516,-227 1129.0516,-227 1129.0516,-228.0799 1129.0516,-228.0799"/>
<polygon fill="#000000" stroke="#000000" points="1125.5517,-227.7985 1129.0516,-237.7985 1132.5517,-227.7986 1125.5517,-227.7985"/>
</g>
<!-- CardBookComponent -->
<g id="node16" class="node">
<title>CardBookComponent</title>
<polygon fill="#ffffb3" stroke="#000000" points="1765.3809,-198 1626.6191,-198 1626.6191,-162 1765.3809,-162 1765.3809,-198"/>
<text text-anchor="middle" x="1696" y="-175.8" font-family="Times,serif" font-size="14.00" fill="#000000">CardBookComponent</text>
</g>
<!-- CardBookComponent&#45;&gt;PagesModule -->
<g id="edge15" class="edge">
<title>CardBookComponent&#45;&gt;PagesModule</title>
<path fill="none" stroke="#000000" d="M1644.5225,-198.1025C1644.5225,-209.0859 1644.5225,-221 1644.5225,-221 1644.5225,-221 1117.5258,-221 1117.5258,-221 1117.5258,-221 1117.5258,-227.68 1117.5258,-227.68"/>
<polygon fill="#000000" stroke="#000000" points="1114.0259,-227.6799 1117.5258,-237.68 1121.0259,-227.68 1114.0259,-227.6799"/>
</g>
<!-- ChatsComponent -->
<g id="node17" class="node">
<title>ChatsComponent</title>
<polygon fill="#ffffb3" stroke="#000000" points="1608.719,-198 1495.281,-198 1495.281,-162 1608.719,-162 1608.719,-198"/>
<text text-anchor="middle" x="1552" y="-175.8" font-family="Times,serif" font-size="14.00" fill="#000000">ChatsComponent</text>
</g>
<!-- ChatsComponent&#45;&gt;PagesModule -->
<g id="edge16" class="edge">
<title>ChatsComponent&#45;&gt;PagesModule</title>
<path fill="none" stroke="#000000" d="M1554.0621,-198.4218C1554.0621,-207.2791 1554.0621,-216 1554.0621,-216 1554.0621,-216 1106,-216 1106,-216 1106,-216 1106,-227.8726 1106,-227.8726"/>
<polygon fill="#000000" stroke="#000000" points="1102.5001,-227.8725 1106,-237.8726 1109.5001,-227.8726 1102.5001,-227.8725"/>
</g>
<!-- HomeComponent -->
<g id="node18" class="node">
<title>HomeComponent</title>
<polygon fill="#ffffb3" stroke="#000000" points="1477.5451,-198 1362.4549,-198 1362.4549,-162 1477.5451,-162 1477.5451,-198"/>
<text text-anchor="middle" x="1420" y="-175.8" font-family="Times,serif" font-size="14.00" fill="#000000">HomeComponent</text>
</g>
<!-- HomeComponent&#45;&gt;PagesModule -->
<g id="edge17" class="edge">
<title>HomeComponent&#45;&gt;PagesModule</title>
<path fill="none" stroke="#000000" d="M1420,-198.1432C1420,-204.4611 1420,-210 1420,-210 1420,-210 1094.4742,-210 1094.4742,-210 1094.4742,-210 1094.4742,-227.8196 1094.4742,-227.8196"/>
<polygon fill="#000000" stroke="#000000" points="1090.9743,-227.8195 1094.4742,-237.8196 1097.9743,-227.8196 1090.9743,-227.8195"/>
</g>
<!-- LibraryComponent -->
<g id="node19" class="node">
<title>LibraryComponent</title>
<polygon fill="#ffffb3" stroke="#000000" points="1344.8118,-198 1221.1882,-198 1221.1882,-162 1344.8118,-162 1344.8118,-198"/>
<text text-anchor="middle" x="1283" y="-175.8" font-family="Times,serif" font-size="14.00" fill="#000000">LibraryComponent</text>
</g>
<!-- LibraryComponent&#45;&gt;PagesModule -->
<g id="edge18" class="edge">
<title>LibraryComponent&#45;&gt;PagesModule</title>
<path fill="none" stroke="#000000" d="M1262.6683,-198.1903C1262.6683,-201.5376 1262.6683,-204 1262.6683,-204 1262.6683,-204 1082.9484,-204 1082.9484,-204 1082.9484,-204 1082.9484,-227.8129 1082.9484,-227.8129"/>
<polygon fill="#000000" stroke="#000000" points="1079.4485,-227.8129 1082.9484,-237.8129 1086.4485,-227.813 1079.4485,-227.8129"/>
</g>
<!-- MessageAdminComponent -->
<g id="node20" class="node">
<title>MessageAdminComponent</title>
<polygon fill="#ffffb3" stroke="#000000" points="1203.6979,-198 1034.3021,-198 1034.3021,-162 1203.6979,-162 1203.6979,-198"/>
<text text-anchor="middle" x="1119" y="-175.8" font-family="Times,serif" font-size="14.00" fill="#000000">MessageAdminComponent</text>
</g>
<!-- MessageAdminComponent&#45;&gt;PagesModule -->
<g id="edge19" class="edge">
<title>MessageAdminComponent&#45;&gt;PagesModule</title>
<path fill="none" stroke="#000000" d="M1071.4227,-198.0109C1071.4227,-198.0109 1071.4227,-227.855 1071.4227,-227.855"/>
<polygon fill="#000000" stroke="#000000" points="1067.9228,-227.8549 1071.4227,-237.855 1074.9228,-227.855 1067.9228,-227.8549"/>
</g>
<!-- OneBookComponent -->
<g id="node21" class="node">
<title>OneBookComponent</title>
<polygon fill="#ffffb3" stroke="#000000" points="1016.4902,-198 881.5098,-198 881.5098,-162 1016.4902,-162 1016.4902,-198"/>
<text text-anchor="middle" x="949" y="-175.8" font-family="Times,serif" font-size="14.00" fill="#000000">OneBookComponent</text>
</g>
<!-- OneBookComponent&#45;&gt;PagesModule -->
<g id="edge20" class="edge">
<title>OneBookComponent&#45;&gt;PagesModule</title>
<path fill="none" stroke="#000000" d="M949,-198.2222C949,-216.8285 949,-243 949,-243 949,-243 1049.744,-243 1049.744,-243"/>
<polygon fill="#000000" stroke="#000000" points="1049.744,-246.5001 1059.744,-243 1049.7439,-239.5001 1049.744,-246.5001"/>
</g>
<!-- PagesComponent -->
<g id="node22" class="node">
<title>PagesComponent</title>
<polygon fill="#ffffb3" stroke="#000000" points="863.9888,-198 750.0112,-198 750.0112,-162 863.9888,-162 863.9888,-198"/>
<text text-anchor="middle" x="807" y="-175.8" font-family="Times,serif" font-size="14.00" fill="#000000">PagesComponent</text>
</g>
<!-- PagesComponent&#45;&gt;PagesModule -->
<g id="edge21" class="edge">
<title>PagesComponent&#45;&gt;PagesModule</title>
<path fill="none" stroke="#000000" d="M807,-198.308C807,-218.1455 807,-247 807,-247 807,-247 1049.6093,-247 1049.6093,-247"/>
<polygon fill="#000000" stroke="#000000" points="1049.6093,-250.5001 1059.6093,-247 1049.6093,-243.5001 1049.6093,-250.5001"/>
</g>
<!-- ProfileComponent -->
<g id="node23" class="node">
<title>ProfileComponent</title>
<polygon fill="#ffffb3" stroke="#000000" points="731.9328,-198 612.0672,-198 612.0672,-162 731.9328,-162 731.9328,-198"/>
<text text-anchor="middle" x="672" y="-175.8" font-family="Times,serif" font-size="14.00" fill="#000000">ProfileComponent</text>
</g>
<!-- ProfileComponent&#45;&gt;PagesModule -->
<g id="edge22" class="edge">
<title>ProfileComponent&#45;&gt;PagesModule</title>
<path fill="none" stroke="#000000" d="M672,-198.1686C672,-219.498 672,-252 672,-252 672,-252 1049.5544,-252 1049.5544,-252"/>
<polygon fill="#000000" stroke="#000000" points="1049.5544,-255.5001 1059.5544,-252 1049.5544,-248.5001 1049.5544,-255.5001"/>
</g>
<!-- SearchComponent -->
<g id="node24" class="node">
<title>SearchComponent</title>
<polygon fill="#ffffb3" stroke="#000000" points="594.9201,-198 475.0799,-198 475.0799,-162 594.9201,-162 594.9201,-198"/>
<text text-anchor="middle" x="535" y="-175.8" font-family="Times,serif" font-size="14.00" fill="#000000">SearchComponent</text>
</g>
<!-- SearchComponent&#45;&gt;PagesModule -->
<g id="edge23" class="edge">
<title>SearchComponent&#45;&gt;PagesModule</title>
<path fill="none" stroke="#000000" d="M535,-198.0109C535,-220.4852 535,-256 535,-256 535,-256 1049.7563,-256 1049.7563,-256"/>
<polygon fill="#000000" stroke="#000000" points="1049.7564,-259.5001 1059.7563,-256 1049.7563,-252.5001 1049.7564,-259.5001"/>
</g>
<!-- DatabaseService -->
<g id="node26" class="node">
<title>DatabaseService</title>
<ellipse fill="#fdb462" stroke="#000000" cx="234" cy="-180" rx="75.2559" ry="18"/>
<text text-anchor="middle" x="234" y="-175.8" font-family="Times,serif" font-size="14.00" fill="#000000">DatabaseService</text>
</g>
<!-- DatabaseService&#45;&gt;PagesModule -->
<g id="edge26" class="edge">
<title>DatabaseService&#45;&gt;PagesModule</title>
<path fill="none" stroke="#000000" d="M234,-198.0263C234,-222.9773 234,-265 234,-265 234,-265 1049.7332,-265 1049.7332,-265"/>
<polygon fill="#000000" stroke="#000000" points="1049.7332,-268.5001 1059.7332,-265 1049.7331,-261.5001 1049.7332,-268.5001"/>
</g>
<!-- DateService -->
<g id="node27" class="node">
<title>DateService</title>
<ellipse fill="#fdb462" stroke="#000000" cx="82" cy="-180" rx="58.4415" ry="18"/>
<text text-anchor="middle" x="82" y="-175.8" font-family="Times,serif" font-size="14.00" fill="#000000">DateService</text>
</g>
<!-- DateService&#45;&gt;PagesModule -->
<g id="edge27" class="edge">
<title>DateService&#45;&gt;PagesModule</title>
<path fill="none" stroke="#000000" d="M82,-198.2128C82,-224.5111 82,-270 82,-270 82,-270 1049.6763,-270 1049.6763,-270"/>
<polygon fill="#000000" stroke="#000000" points="1049.6763,-273.5001 1059.6763,-270 1049.6763,-266.5001 1049.6763,-273.5001"/>
</g>
<!-- ThousandsPipe -->
<g id="node28" class="node">
<title>ThousandsPipe</title>
<polygon fill="#ffffb3" stroke="#000000" points="2835.5452,-122 2734.4548,-122 2734.4548,-86 2835.5452,-86 2835.5452,-122"/>
<text text-anchor="middle" x="2785" y="-99.8" font-family="Times,serif" font-size="14.00" fill="#000000">ThousandsPipe</text>
</g>
<!-- PipesCommonModule -->
<g id="node29" class="node">
<title>PipesCommonModule</title>
<polygon fill="#8dd3c7" stroke="#000000" points="2856,-198 2853,-202 2832,-202 2829,-198 2714,-198 2714,-162 2856,-162 2856,-198"/>
<text text-anchor="middle" x="2785" y="-175.8" font-family="Times,serif" font-size="14.00" fill="#000000">PipesCommonModule</text>
</g>
<!-- ThousandsPipe&#45;&gt;PipesCommonModule -->
<g id="edge28" class="edge">
<title>ThousandsPipe&#45;&gt;PipesCommonModule</title>
<path fill="none" stroke="#000000" d="M2785,-122.0109C2785,-122.0109 2785,-151.855 2785,-151.855"/>
<polygon fill="#000000" stroke="#000000" points="2781.5001,-151.8549 2785,-161.855 2788.5001,-151.855 2781.5001,-151.8549"/>
</g>
<!-- ThousandsPipe  -->
<g id="node30" class="node">
<title>ThousandsPipe </title>
<polygon fill="#fb8072" stroke="#000000" points="2837.5442,-274 2732.4558,-274 2732.4558,-238 2837.5442,-238 2837.5442,-274"/>
<text text-anchor="middle" x="2785" y="-251.8" font-family="Times,serif" font-size="14.00" fill="#000000">ThousandsPipe </text>
</g>
<!-- PipesCommonModule&#45;&gt;ThousandsPipe  -->
<g id="edge29" class="edge">
<title>PipesCommonModule&#45;&gt;ThousandsPipe </title>
<path fill="none" stroke="#000000" stroke-dasharray="5,2" d="M2785,-198.0109C2785,-198.0109 2785,-227.855 2785,-227.855"/>
<polygon fill="#000000" stroke="#000000" points="2781.5001,-227.8549 2785,-237.855 2788.5001,-227.855 2781.5001,-227.8549"/>
</g>
<!-- HeaderComponent -->
<g id="node31" class="node">
<title>HeaderComponent</title>
<polygon fill="#ffffb3" stroke="#000000" points="2681.7437,-122 2560.2563,-122 2560.2563,-86 2681.7437,-86 2681.7437,-122"/>
<text text-anchor="middle" x="2621" y="-99.8" font-family="Times,serif" font-size="14.00" fill="#000000">HeaderComponent</text>
</g>
<!-- HeaderComponent&#45;&gt;SharedModule -->
<g id="edge30" class="edge">
<title>HeaderComponent&#45;&gt;SharedModule</title>
<path fill="none" stroke="#000000" d="M2619.6192,-122.4218C2619.6192,-131.2791 2619.6192,-140 2619.6192,-140 2619.6192,-140 2044.9083,-140 2044.9083,-140 2044.9083,-140 2044.9083,-151.8726 2044.9083,-151.8726"/>
<polygon fill="#000000" stroke="#000000" points="2041.4084,-151.8725 2044.9083,-161.8726 2048.4084,-151.8726 2041.4084,-151.8725"/>
</g>
<!-- LoadingComponent -->
<g id="node32" class="node">
<title>LoadingComponent</title>
<polygon fill="#ffffb3" stroke="#000000" points="2541.9902,-122 2414.0098,-122 2414.0098,-86 2541.9902,-86 2541.9902,-122"/>
<text text-anchor="middle" x="2478" y="-99.8" font-family="Times,serif" font-size="14.00" fill="#000000">LoadingComponent</text>
</g>
<!-- LoadingComponent&#45;&gt;SharedModule -->
<g id="edge31" class="edge">
<title>LoadingComponent&#45;&gt;SharedModule</title>
<path fill="none" stroke="#000000" d="M2477.4958,-122.1432C2477.4958,-128.4611 2477.4958,-134 2477.4958,-134 2477.4958,-134 2032.6056,-134 2032.6056,-134 2032.6056,-134 2032.6056,-151.8196 2032.6056,-151.8196"/>
<polygon fill="#000000" stroke="#000000" points="2029.1056,-151.8195 2032.6056,-161.8196 2036.1056,-151.8196 2029.1056,-151.8195"/>
</g>
<!-- MessagesComponent -->
<g id="node33" class="node">
<title>MessagesComponent</title>
<polygon fill="#ffffb3" stroke="#000000" points="2395.7548,-122 2260.2452,-122 2260.2452,-86 2395.7548,-86 2395.7548,-122"/>
<text text-anchor="middle" x="2328" y="-99.8" font-family="Times,serif" font-size="14.00" fill="#000000">MessagesComponent</text>
</g>
<!-- MessagesComponent&#45;&gt;SharedModule -->
<g id="edge32" class="edge">
<title>MessagesComponent&#45;&gt;SharedModule</title>
<path fill="none" stroke="#000000" d="M2320.6645,-122.1903C2320.6645,-125.5376 2320.6645,-128 2320.6645,-128 2320.6645,-128 2020.3028,-128 2020.3028,-128 2020.3028,-128 2020.3028,-151.8129 2020.3028,-151.8129"/>
<polygon fill="#000000" stroke="#000000" points="2016.8029,-151.8129 2020.3028,-161.8129 2023.8029,-151.813 2016.8029,-151.8129"/>
</g>
<!-- NotificationsComponent -->
<g id="node34" class="node">
<title>NotificationsComponent</title>
<polygon fill="#ffffb3" stroke="#000000" points="2242.427,-122 2087.573,-122 2087.573,-86 2242.427,-86 2242.427,-122"/>
<text text-anchor="middle" x="2165" y="-99.8" font-family="Times,serif" font-size="14.00" fill="#000000">NotificationsComponent</text>
</g>
<!-- NotificationsComponent&#45;&gt;SharedModule -->
<g id="edge33" class="edge">
<title>NotificationsComponent&#45;&gt;SharedModule</title>
<path fill="none" stroke="#000000" d="M2087.7633,-104C2080.465,-104 2075.723,-104 2075.723,-104 2075.723,-104 2075.723,-180 2075.723,-180 2075.723,-180 2067.2174,-180 2067.2174,-180"/>
<polygon fill="#000000" stroke="#000000" points="2067.2174,-176.5001 2057.2174,-180 2067.2174,-183.5001 2067.2174,-176.5001"/>
</g>
<!-- SidebarComponent -->
<g id="node35" class="node">
<title>SidebarComponent</title>
<polygon fill="#ffffb3" stroke="#000000" points="2070.0954,-122 1945.9046,-122 1945.9046,-86 2070.0954,-86 2070.0954,-122"/>
<text text-anchor="middle" x="2008" y="-99.8" font-family="Times,serif" font-size="14.00" fill="#000000">SidebarComponent</text>
</g>
<!-- SidebarComponent&#45;&gt;SharedModule -->
<g id="edge34" class="edge">
<title>SidebarComponent&#45;&gt;SharedModule</title>
<path fill="none" stroke="#000000" d="M2008,-122.0109C2008,-122.0109 2008,-151.855 2008,-151.855"/>
<polygon fill="#000000" stroke="#000000" points="2004.5001,-151.8549 2008,-161.855 2011.5001,-151.855 2004.5001,-151.8549"/>
</g>
</g>
</svg>
